<svg width="69" height="20" viewBox="0 0 69 20" fill="none" xmlns="http://www.w3.org/2000/svg">
  <path d="M63.871 5.20133V7.05448C62.7716 5.70694 61.1754 4.86499 59.2802 4.86499C55.6232 4.86499 52.7896 7.99095 52.7896 11.8489C52.7896 15.7069 55.6232 18.8329 59.2802 18.8329C61.3088 18.8329 62.9947 17.87 64.0964 16.3532V18.4988H67.5947V5.20133H63.871ZM60.1887 15.5025C58.1555 15.5025 56.5087 13.867 56.5087 11.8489C56.5087 9.83092 58.1555 8.19539 60.1887 8.19539C62.2219 8.19539 63.8687 9.83092 63.8687 11.8489C63.8687 13.867 62.2219 15.5025 60.1887 15.5025ZM20.9875 1.51041H24.7089V18.4966H20.9875V1.51041ZM28.9892 10.9608C28.9892 7.30509 31.3375 4.86719 34.5897 4.86719C36.6091 4.86719 38.2053 5.72452 39.1667 7.18638C40.1304 5.72452 41.7243 4.86719 43.7437 4.86719C46.9959 4.86719 49.3442 7.30509 49.3442 10.9608V18.4988H45.6228V10.5761C45.6228 9.14945 44.6338 8.21958 43.3251 8.21958C42.0164 8.21958 41.0274 9.15165 41.0274 10.5761V18.4988H37.306V10.5761C37.306 9.14945 36.317 8.21958 35.0083 8.21958C33.6996 8.21958 32.7106 9.15165 32.7106 10.5761V18.4988H28.9892V10.9608ZM14.2485 5.33982C13.3676 2.18528 11.5046 1.17627 9.73126 1.17627C7.95796 1.17627 6.09496 2.18528 5.21406 5.33982L1.38916 18.501H5.15886C5.77296 16.3027 7.66586 15.0782 9.73126 15.0782C11.7967 15.0782 13.6896 16.3049 14.3037 18.501H18.0757L14.2485 5.33982ZM9.73126 12.0116C8.53066 12.0116 7.44276 12.4469 6.64006 13.1525L8.80206 5.4937C9.00906 4.76167 9.31496 4.52865 9.73356 4.52865C10.1522 4.52865 10.4581 4.76167 10.6651 5.4937L12.8248 13.1525C12.0221 12.4469 10.9319 12.0116 9.73126 12.0116Z" fill="#FA5022"/>
  </svg>
